<?xml version="1.0" encoding="UTF-8"?>
<svg id="Isolation_Mode" data-name="Isolation Mode" xmlns="http://www.w3.org/2000/svg" viewBox="0 0 1224 122.62">
  <g>
    <path d="M630.93,122.55h0l-115.18-26.61L602.4,3.85l28.53,118.7Zm-105.98-29.29l99.25,23-24.56-102.36-74.69,79.37h0Z"/>
    <path d="M534.11,3.85l86.62,92.09-115.13,26.54h0L534.11,3.85Zm2.76,10.04l-24.6,102.38,99.32-23L536.88,13.89h0Z"/>
    <path d="M508.83,108.78L568.19,0l59.39,108.78h-118.75Zm8.17-4.64h102.39l-51.2-93.78-51.18,93.78h0Z"/>
    <polygon points="505.59 122.62 508.68 117.96 627.78 117.96 630.93 122.62 505.59 122.62"/>
  </g>
  <g>
    <polygon points="83.18 59.51 47.75 59.51 47.75 122.62 35.46 122.62 35.46 59.51 0 59.51 0 48.46 83.18 48.46 83.18 59.51"/>
    <polygon points="195.34 122.62 183.05 122.62 183.05 89.63 123.63 89.63 123.63 122.62 111.33 122.62 111.33 48.46 123.63 48.46 123.63 78.58 183.05 78.58 183.05 48.46 195.34 48.46 195.34 122.62"/>
    <rect x="227.84" y="48.46" width="12.29" height="74.16"/>
    <path d="M356.96,122.62h-14.31l-20.07-28.28h-37.44v28.28h-12.29V48.46h58.5c7.79,0,13.88,2.09,18.32,6.29,4.44,4.2,6.67,9.89,6.67,17.06,0,6.28-1.81,11.33-5.43,15.16-3.35,3.56-7.96,5.82-13.83,6.76l19.88,28.89Zm-27.45-39.35c9.49,0,14.24-3.8,14.24-11.46,0-8.19-5.13-12.29-15.37-12.29h-43.23v23.75h44.36Z"/>
    <path d="M432.02,48.46c12.9,0,23.13,3.43,30.66,10.29,7.55,6.85,11.34,16.07,11.34,27.6,0,10.59-4,19.4-12,26.45-7.45,6.55-16.68,9.83-27.66,9.83h-49.27V48.46h46.92Zm3.36,63.1c7.37,0,13.46-2.38,18.17-7.14,4.76-4.76,7.14-10.88,7.14-18.36,0-7.96-2.54-14.36-7.64-19.22-5.09-4.88-11.76-7.31-20.03-7.31h-35.64v52.04h38Z"/>
  </g>
  <g>
    <path d="M738.54,66.76l-10.53,3.75c-7.1-7.5-17.01-11.27-29.78-11.27-9.66,0-17.54,2.47-23.64,7.42-6.09,4.94-9.12,11.25-9.12,18.89s3.01,14.28,9.04,19.12c6.02,4.85,14.16,7.28,24.4,7.28,12.37,0,22.1-3.82,29.2-11.47l9.95,5.49c-5.04,5.85-10.72,10.08-17.06,12.68-6.35,2.6-13.94,3.9-22.76,3.9-12.37,0-22.65-3.09-30.82-9.25-9.35-7.06-14.03-16.31-14.03-27.75s4.75-20.42,14.22-27.58c8.24-6.22,18.45-9.35,30.63-9.35,17.52,0,30.96,6.06,40.31,18.13Z"/>
    <path d="M850.96,122.36h-14.18l-19.92-28.06h-37.14v28.06h-12.2V48.78h58.04c7.73,0,13.77,2.09,18.19,6.25,4.41,4.16,6.61,9.82,6.61,16.92,0,6.23-1.8,11.25-5.39,15.05-3.33,3.53-7.91,5.76-13.73,6.7l19.71,28.66Zm-27.24-39.04c9.42,0,14.13-3.78,14.13-11.38,0-8.1-5.08-12.19-15.25-12.19h-42.89v23.57h44.01Z"/>
    <path d="M964.8,85.62c0,11.42-4.68,20.65-14.09,27.69-8.25,6.17-18.5,9.25-30.74,9.25s-22.68-3.12-30.95-9.34c-9.4-7.05-14.08-16.26-14.08-27.6s4.75-20.34,14.29-27.53c8.37-6.28,18.63-9.42,30.74-9.42s22.38,3.14,30.64,9.42c9.48,7.19,14.2,16.37,14.2,27.53Zm-12.07,0c0-8.16-3.47-14.76-10.45-19.82-5.98-4.36-13.42-6.54-22.31-6.54-9.74,0-17.66,2.48-23.79,7.46-6.11,4.96-9.18,11.27-9.18,18.9s2.99,14.26,9,19.09c6,4.84,13.99,7.26,23.97,7.26s17.87-2.44,23.82-7.31c5.96-4.86,8.94-11.21,8.94-19.03Z"/>
    <path d="M1072.14,48.67l-40.05,73.73h-15.59l-39.38-73.73h13.59l33.63,61.73,33.49-61.73h14.31Zm-28.57,0l33.05,61.85,33.58-61.85h13.6l-39.21,73.73h-15.78l-40.4-73.73h15.15Z"/>
    <polygon points="1224 122.49 1208.9 122.49 1153.03 61.93 1153.03 122.49 1140.88 122.49 1140.88 48.63 1155.97 48.63 1211.86 109.23 1211.86 48.63 1224 48.63 1224 122.49"/>
  </g>
</svg>