<?xml version="1.0" encoding="UTF-8"?>
<svg id="Camada_1" data-name="Camada 1" xmlns="http://www.w3.org/2000/svg" viewBox="0 0 742 150.52">
  <defs>
    <style>
      .cls-1 {
        fill: #292728;
      }
    </style>
  </defs>
  <g>
    <path class="cls-1" d="M33.04,14.5h11.53V98.04c0,10.29-2.96,12.47-10.6,17.3v1.4h45.82v-1.4c-7.64-4.83-10.76-7.01-10.76-17.3V14.5h11.53c15.74,0,21.66,12.47,31.33,26.5h1.87l-4.83-34.29c-2.34,.47-4.67,.94-9.35,.94H14.18c-4.68,0-7.01-.47-9.35-.94L0,40.99H1.87c9.51-14.03,15.43-26.5,31.17-26.5Z"/>
    <path class="cls-1" d="M131.08,17.46V99.13c0,10.29-1.71,11.69-8.42,16.21v1.4h40.06v-1.4c-6.7-4.52-8.42-5.92-8.42-16.21v-23.38c0-15.43,7.17-22.44,16.05-22.44s12.47,6.39,12.47,14.96v30.86c0,10.29-1.71,11.69-8.42,16.21v1.4h40.05v-1.4c-6.7-4.52-8.42-5.92-8.42-16.21v-33.67c0-15.43-7.64-27.12-25.09-27.12-12.31,0-21.82,7.33-26.65,21.04V0h-33.36V1.4c6.55,4.05,10.13,6.23,10.13,16.05Z"/>
    <path class="cls-1" d="M263.87,118.3c17.92,0,30.55-9.04,34.91-25.25l-3.27-1.09c-5.45,10.91-13.09,14.81-23.53,14.81-14.81,0-23.69-12.16-23.69-29.77h52.06c0-24.16-12.62-38.65-36.32-38.65-22.29,0-40.21,15.74-40.21,40.21,0,26.19,17.92,39.75,40.06,39.75Zm0-73.26c10.6,0,12.94,12.31,13.09,24.94h-28.37c.93-14.18,5.3-24.94,15.27-24.94Z"/>
    <path class="cls-1" d="M510.91,110.35c-16.52,0-27.43-11.53-38.65-29.46h-2.96l2.18,37.41h2.34l6.86-9.66c5.77,4.05,18.08,9.66,30.39,9.66,22.76,0,41.46-12.47,41.46-34.45,0-18.39-10.6-26.5-27.74-31.95l-14.81-4.52c-12-3.74-17.3-8.42-17.3-18.24s7.79-16.05,18.55-16.05c15.12,0,23.38,10.13,33.98,26.34h2.03l-.47-33.35h-2.03l-6.7,7.79c-6.23-3.59-15.28-7.79-26.81-7.79-24.31,0-40.06,12.78-40.06,32.26,0,16.99,9.82,25.56,28.83,31.64l14.49,4.52c10.91,3.27,16.84,8.26,16.84,18.24,0,11.22-7.48,17.61-20.42,17.61Z"/>
    <path class="cls-1" d="M586.34,28.21c7.95,0,13.87-5.92,13.87-13.56s-5.92-13.56-13.87-13.56-13.72,5.92-13.72,13.56,5.92,13.56,13.72,13.56Z"/>
    <path class="cls-1" d="M575.28,57.36v41.77c0,10.29-1.71,11.69-8.42,16.21v1.4h40.05v-1.4c-6.7-4.52-8.42-5.92-8.42-16.21V39.9h-32.89v1.4c6.39,4.21,9.66,6.23,9.66,16.05Z"/>
    <path class="cls-1" d="M625.93,17.46V99.13c0,10.29-1.71,11.69-8.42,16.21v1.4h40.06v-1.4c-6.7-4.52-8.42-5.92-8.42-16.21V0h-33.36V1.4c6.55,4.05,10.13,6.23,10.13,16.05Z"/>
    <path class="cls-1" d="M675.96,17.46V99.13c0,10.29-1.71,11.69-8.42,16.21v1.4h40.05v-1.4c-6.7-4.52-8.42-5.92-8.42-16.21V0h-33.35V1.4c6.55,4.05,10.13,6.23,10.13,16.05Z"/>
    <rect class="cls-1" x="4.81" y="143.6" width="712.77" height="6.91"/>
  </g>
  <path class="cls-1" d="M725.91,14.08h1.28c2.11,0,3.83-.39,3.83-2.94,0-2.23-1.6-2.81-3.83-2.81h-1.28v5.75Zm0,5.49c0,1.47,.38,1.54,1.47,2.11v.45h-6.06v-.45c1.08-.57,1.54-.63,1.54-2.11V9.54c0-1.47-.45-1.53-1.54-2.1v-.45h7.41c3.19,0,5.62,1.15,5.62,4.15,0,2.68-2.56,3.77-4.92,3.77v.06c1.98,.19,3.32,1.02,3.83,2.62l.51,1.72c.45,1.54,.89,1.86,2.17,2.36v.45h-4.4c-.45-.83-.64-1.4-.96-2.49l-.58-1.98c-.51-1.66-1.02-2.17-2.87-2.17h-1.22v4.09Zm2.3-17.11c-6.71,0-12.13,5.11-12.13,12.2s5.42,12.2,12.13,12.2,12.13-5.11,12.13-12.2-5.43-12.2-12.13-12.2m0,25.99c-7.6,0-13.79-5.81-13.79-13.79s6.19-13.79,13.79-13.79,13.79,5.81,13.79,13.79-6.19,13.79-13.79,13.79"/>
</svg>