<?xml version="1.0" encoding="UTF-8"?>
<svg id="Layer_1" data-name="Layer 1" xmlns="http://www.w3.org/2000/svg" viewBox="0 0 929.08 72.47">
  <path d="M8.3,3.49C12.15-.36,18.4-.36,22.26,3.49l5.24,5.24c3.86,3.85,3.86,10.11,0,13.96l-5.4,5.41c-3.86,3.86-10.11,3.86-13.96,0l-5.24-5.23c-3.86-3.86-3.86-10.11,0-13.96L8.3,3.49Z"/>
  <path d="M53.88,3.49c3.85-3.86,10.11-3.86,13.96,0l5.24,5.24c3.86,3.85,3.86,10.11,0,13.96l-5.4,5.41c-3.86,3.86-10.11,3.86-13.96,0l-5.24-5.23c-3.86-3.86-3.86-10.11,0-13.96l5.4-5.4Z"/>
  <path d="M8.3,44.02c3.85-3.86,10.11-3.86,13.96,0l5.24,5.24c3.86,3.85,3.86,10.11,0,13.96l-5.4,5.41c-3.86,3.86-10.11,3.86-13.96,0l-5.24-5.23c-3.86-3.86-3.86-10.11,0-13.96l5.4-5.4Z"/>
  <path d="M53.88,44.02c3.85-3.86,10.11-3.86,13.96,0l5.24,5.24c3.86,3.85,3.86,10.11,0,13.96l-5.4,5.41c-3.86,3.86-10.11,3.86-13.96,0l-5.24-5.23c-3.86-3.86-3.86-10.11,0-13.96l5.4-5.4Z"/>
  <path d="M104.26,3.42c0-1.31,1.06-2.42,2.55-2.42h12.4c1.38,0,2.54,1.1,2.54,2.42V29.89L145.28,2.01c.42-.5,1.38-1.01,2.02-1.01h13.36c2.01,0,3.07,2.21,1.91,3.72l-24.81,29.49,27.04,33.42c1.17,1.51,0,3.72-2.02,3.72h-14.63c-.74,0-1.7-.4-1.91-.7l-24.49-31.6v29.99c0,1.31-1.17,2.42-2.54,2.42h-12.4c-1.48,0-2.55-1.1-2.55-2.42V3.42Z"/>
  <path d="M187.37,2.92c0-1.01,.95-1.91,2.02-1.91h12.72c1.06,0,2.01,.91,2.01,1.91V69.55c0,1.01-.95,1.91-2.01,1.91h-12.72c-1.06,0-2.02-.91-2.02-1.91V2.92Z"/>
  <path d="M266.88,31.1c4.35,0,8.06-3.82,8.06-8.05s-3.71-7.65-8.06-7.65h-15.69v15.7h15.69ZM234.54,2.92c0-1.01,.85-1.91,2.02-1.91h31.7c12.72,0,23.11,9.76,23.11,21.74,0,9.26-6.47,16.71-15.69,20.23l14.52,25.57c.74,1.31,0,2.92-1.8,2.92h-14.1c-.85,0-1.48-.5-1.7-.91l-14.1-26.67h-7.32v25.67c0,1.01-.95,1.91-2.01,1.91h-12.62c-1.17,0-2.02-.91-2.02-1.91V2.92Z"/>
  <path d="M350.1,31.1c4.35,0,8.06-3.82,8.06-8.05s-3.71-7.65-8.06-7.65h-15.69v15.7h15.69ZM317.76,2.92c0-1.01,.85-1.91,2.02-1.91h31.7c12.72,0,23.11,9.76,23.11,21.74,0,9.26-6.47,16.71-15.69,20.23l14.52,25.57c.74,1.31,0,2.92-1.8,2.92h-14.1c-.85,0-1.48-.5-1.7-.91l-14.1-26.67h-7.32v25.67c0,1.01-.95,1.91-2.01,1.91h-12.62c-1.17,0-2.02-.91-2.02-1.91V2.92Z"/>
  <path d="M400.98,2.92c0-1.01,.95-1.91,2.02-1.91h12.72c1.06,0,2.01,.91,2.01,1.91V69.55c0,1.01-.95,1.91-2.01,1.91h-12.72c-1.06,0-2.02-.91-2.02-1.91V2.92Z"/>
  <path d="M448.05,1.81c0-1.01,.95-1.81,2.01-1.81h2.65l42.3,38.65h.11V2.92c0-1.01,.85-1.91,2.01-1.91h12.72c1.06,0,2.01,.91,2.01,1.91V70.66c0,1.01-.95,1.81-2.01,1.81h-1.7c-.32,0-1.17-.3-1.38-.5l-41.88-39.96h-.11v37.54c0,1.01-.85,1.91-2.02,1.91h-12.61c-1.06,0-2.02-.91-2.02-1.91l-.11-67.74Z"/>
  <path d="M568.74,2.92c0-1.01,.85-1.91,2.02-1.91h43.89c1.17,0,2.02,.91,2.02,1.91V13.89c0,1.01-.85,1.91-2.02,1.91h-29.37v14.49h24.17c1.06,0,2.02,.91,2.02,1.91v10.97c0,1.01-.96,1.91-2.02,1.91h-24.17v24.46c0,1.01-.95,1.91-2.02,1.91h-12.51c-1.17,0-2.02-.91-2.02-1.91V2.92Z"/>
  <path d="M640.62,2.92c0-1.01,.95-1.91,2.02-1.91h12.72c1.06,0,2.01,.91,2.01,1.91V69.55c0,1.01-.95,1.91-2.01,1.91h-12.72c-1.06,0-2.02-.91-2.02-1.91V2.92Z"/>
  <path d="M687.69,1.81c0-1.01,.95-1.81,2.01-1.81h2.65l42.3,38.65h.11V2.92c0-1.01,.85-1.91,2.01-1.91h12.72c1.06,0,2.01,.91,2.01,1.91V70.66c0,1.01-.95,1.81-2.01,1.81h-1.7c-.32,0-1.17-.3-1.38-.5l-41.88-39.96h-.11v37.54c0,1.01-.85,1.91-2.02,1.91h-12.61c-1.06,0-2.02-.91-2.02-1.91l-.11-67.74Z"/>
  <path d="M814.8,0c10.6,0,18.45,3.12,25.66,9.36,.95,.81,.95,2.01,.11,2.82l-8.27,8.15c-.74,.7-1.91,.7-2.65,0-3.92-3.32-9.12-5.13-14.31-5.13-11.98,0-20.78,9.46-20.78,20.73s8.91,20.43,20.89,20.43c4.98,0,10.39-1.71,14.2-4.83,.74-.6,2.12-.6,2.76,.1l8.27,8.35c.74,.7,.64,2.01-.11,2.72-7.21,6.64-16.33,9.76-25.76,9.76-21.2,0-38.27-16-38.27-36.13S793.59,0,814.8,0"/>
  <path d="M865.47,2.92c0-1.01,.95-1.91,2.02-1.91h12.62c1.17,0,2.01,.91,2.01,1.91V28.28h30.32V2.92c0-1.01,.85-1.91,2.02-1.91h12.61c1.06,0,2.02,.91,2.02,1.91V69.55c0,1.01-.95,1.91-2.02,1.91h-12.61c-1.17,0-2.02-.91-2.02-1.91v-26.47h-30.32v26.47c0,1.01-.85,1.91-2.01,1.91h-12.62c-1.06,0-2.02-.91-2.02-1.91V2.92Z"/>
</svg>