<svg width="54" height="13" viewBox="0 0 54 13" fill="none" xmlns="http://www.w3.org/2000/svg">
<g clip-path="url(#clip0_615_1559)">
<path d="M52.5988 12.5099C53.3726 12.5099 54 11.8825 54 11.1087C54 10.3348 53.3726 9.70752 52.5988 9.70752C51.825 9.70752 51.1976 10.3348 51.1976 11.1087C51.1976 11.8825 51.825 12.5099 52.5988 12.5099Z" fill="black"/>
<path d="M33.8941 0C30.9463 0 29.2021 1.73529 29.0544 4.77918H29.0425V7.28419C29.0425 10.5441 30.8567 12.4901 33.8941 12.4901C36.9955 12.4901 38.7741 10.591 38.7741 7.28419V4.77918H38.7623C38.6139 1.73529 36.859 0 33.8941 0ZM35.9154 6.09726V7.39517C35.9154 9.06637 35.2543 9.87882 33.8941 9.87882C32.5528 9.87882 31.8727 9.04322 31.8727 7.39517V5.0949C31.8727 3.44685 32.5528 2.61125 33.8941 2.61125C35.2543 2.61125 35.9154 3.4237 35.9154 5.0949V6.09726Z" fill="black"/>
<path d="M18.4632 7.18934C18.4632 8.89199 17.8205 9.71988 16.4989 9.71988C15.1576 9.71988 14.5054 8.89199 14.5054 7.18934V0.415527H11.6752V7.07599C11.6752 10.4647 13.4022 12.4083 16.4134 12.4083C19.443 12.4083 21.1801 10.4647 21.1801 7.07599V0.415527H18.4632V7.18934Z" fill="black"/>
<path d="M45.2643 0.3125C44.4482 0.3125 43.7266 0.454932 43.1064 0.727926V0.431193H40.2483V12.3978H43.1064V12.3759H43.215V5.53203C43.215 3.82938 43.8572 3.00149 45.1794 3.00149C46.5206 3.00149 47.1728 3.83234 47.1728 5.53203V12.3759H50.0031V5.64479C50.0031 2.25491 48.2755 0.3125 45.2643 0.3125Z" fill="black"/>
<path d="M28.0371 0.274414C27.2205 0.274414 26.4988 0.416846 25.8786 0.68984V0.393107H23.0205V12.3597H25.8786V12.3378H25.9872V5.49394C25.9872 3.7907 26.63 2.96341 27.9516 2.96341C28.0545 2.96374 28.1574 2.96968 28.2596 2.98121L29.0501 0.378864C28.9759 0.37649 28.1118 0.274414 28.0371 0.274414Z" fill="black"/>
<path d="M6.75601 5.25526H2.85991V0.313477H0V12.4534H2.85991V7.49797H6.75601V12.4534H9.61592V7.16444V5.60185V0.313477H6.75601V5.25526Z" fill="black"/>
</g>
<defs>
<clipPath id="clip0_615_1559">
<rect width="54" height="12.5097" fill="white"/>
</clipPath>
</defs>
</svg>
