<svg width="3545" height="714" viewBox="0 0 3545 714" fill="none" xmlns="http://www.w3.org/2000/svg">
<path d="M1450.67 687.444C1439.97 689.844 1429.37 692.644 1420.37 699.144C1417.47 701.244 1414.27 701.544 1411.07 702.144C1398.87 704.344 1387.27 708.144 1375.67 712.344C1369.77 714.444 1373.97 707.944 1371.47 706.944C1368.87 705.844 1366.57 707.444 1365.27 708.844C1359.97 714.344 1353.37 713.444 1346.87 713.644C1343.37 713.744 1340.47 713.144 1338.17 710.144C1334.67 705.644 1329.67 704.444 1324.17 704.144C1315.57 703.744 1313.47 701.144 1310.67 693.144C1306.97 682.544 1306.37 671.344 1303.77 660.544C1302.57 655.644 1305.17 650.744 1306.97 646.244C1310.47 637.644 1315.37 630.344 1324.37 625.644C1330.67 622.344 1336.37 617.844 1343.07 615.444C1342.37 612.244 1339.67 611.844 1338.07 610.144C1334.17 605.844 1332.37 602.044 1333.47 595.244C1335.57 581.444 1338.87 567.844 1341.07 554.144C1341.27 552.844 1341.17 551.544 1341.97 550.444C1350.57 538.944 1351.57 524.644 1356.77 511.844C1363.87 494.244 1370.37 476.444 1378.47 459.144C1393.67 426.744 1408.57 394.144 1425.07 362.344C1433.77 345.544 1442.37 328.844 1450.47 311.744C1457.37 297.044 1463.37 281.944 1469.67 266.944C1474.47 255.344 1479.87 243.944 1485.17 232.644C1491.67 218.944 1497.57 204.944 1503.07 190.444C1497.67 188.944 1493.07 187.144 1488.27 186.444C1471.27 183.844 1459.77 172.944 1449.77 160.544C1445.67 155.444 1440.47 151.044 1437.37 145.144C1432.77 136.444 1427.27 128.244 1424.67 118.744C1422.67 111.544 1424.07 105.644 1428.67 99.2439C1438.27 86.2439 1450.27 78.0439 1466.57 76.7439C1473.17 76.2439 1477.97 71.6439 1483.67 69.1439C1491.87 65.6439 1500.47 63.4439 1509.17 61.7439C1514.37 60.7439 1519.57 59.2439 1523.97 56.2439C1529.87 52.3439 1536.47 50.5439 1543.17 48.7439C1556.87 45.2439 1570.77 42.0439 1584.37 38.1439C1590.27 36.4439 1596.47 35.2438 1601.47 30.5438C1603.57 28.5438 1607.47 28.1439 1610.67 27.3439C1640.17 19.3439 1670.17 13.6439 1700.27 8.84386C1713.87 6.64386 1727.87 6.04381 1741.47 4.04381C1770.27 -0.256187 1799.07 0.84391 1827.87 0.64391C1843.77 0.54391 1859.37 3.54384 1874.77 6.94384C1886.97 9.64384 1899.27 12.2439 1910.27 18.8439C1924.57 27.5439 1935.57 38.7438 1941.27 54.9438C1942.47 58.2438 1942.57 61.3439 1942.67 64.6439C1942.77 80.7439 1940.97 96.6439 1939.57 112.644C1938.77 121.344 1938.97 130.144 1936.87 138.644C1934.07 150.244 1928.17 159.944 1919.27 168.044C1909.77 176.744 1899.17 183.344 1888.07 189.944C1877.57 196.144 1868.27 205.044 1860.97 215.444C1859.77 217.144 1858.97 218.844 1857.07 219.744C1840.67 227.744 1826.87 240.344 1809.87 247.144C1803.07 249.844 1799.07 255.944 1794.17 260.744C1789.97 264.844 1785.67 268.244 1779.37 267.644C1776.17 267.344 1773.27 268.644 1771.07 270.544C1765.47 275.444 1758.97 278.244 1751.97 280.044C1745.67 281.644 1742.57 287.144 1738.77 291.544C1736.07 293.444 1732.77 293.544 1729.47 294.344C1731.67 298.444 1735.57 298.244 1739.07 298.944C1751.27 304.944 1763.57 310.744 1775.77 316.844C1796.07 326.944 1814.97 339.244 1830.07 356.344C1845.27 373.544 1857.17 392.944 1861.97 415.644C1864.07 425.544 1864.67 435.844 1866.57 445.844C1866.77 446.744 1866.87 447.744 1869.07 447.744C1872.07 440.944 1875.37 433.944 1878.17 426.744C1888.67 400.144 1903.07 375.444 1915.17 349.744C1924.67 329.644 1936.57 311.144 1947.47 291.944C1958.37 272.744 1970.47 254.144 1981.97 235.144C1993.47 216.144 2004.77 197.144 2015.97 177.944C2021.47 168.544 2026.67 158.944 2032.07 149.344C2032.37 148.744 2032.77 148.144 2032.97 147.544C2036.97 135.444 2043.37 125.144 2051.77 115.444C2059.47 106.544 2074.47 101.244 2084.57 111.144C2089.77 116.244 2095.47 120.744 2099.47 127.144C2103.87 134.144 2107.17 134.944 2115.47 133.244C2146.17 127.044 2176.67 120.244 2207.47 115.044C2229.87 111.244 2252.27 107.444 2274.87 104.944C2298.17 102.344 2321.47 99.5438 2344.97 99.4438C2350.77 99.4438 2356.17 101.044 2361.07 103.744C2365.97 106.444 2366.77 108.844 2363.67 113.944C2360.97 118.244 2364.07 123.544 2359.47 127.744C2357.37 129.644 2357.27 134.044 2353.07 134.844C2351.87 135.044 2350.97 136.544 2350.97 137.944C2351.17 145.844 2347.07 152.344 2344.77 159.444C2343.17 164.444 2340.27 168.544 2335.17 171.344C2324.97 176.944 2315.07 183.744 2303.47 184.644C2289.27 185.744 2275.97 191.244 2261.57 191.444C2250.87 191.544 2240.27 195.344 2229.57 197.144C2213.77 199.844 2198.17 203.744 2182.57 207.544C2164.27 212.044 2146.17 217.444 2128.27 223.344C2123.27 224.944 2118.17 226.344 2112.97 227.044C2106.37 227.944 2102.47 231.944 2098.87 237.044C2092.77 245.644 2089.67 255.944 2083.27 264.444C2079.47 269.544 2075.67 274.444 2071.07 278.944C2052.57 296.944 2038.67 318.244 2027.57 341.444C2026.87 342.944 2026.37 344.444 2025.27 347.044C2036.37 345.844 2046.57 344.644 2056.77 343.544C2066.97 342.444 2077.47 342.844 2086.87 338.044C2085.47 333.944 2082.77 334.344 2080.77 333.344C2072.47 328.944 2071.57 318.444 2079.07 312.944C2082.27 310.644 2085.97 308.744 2089.67 307.644C2109.17 301.944 2128.67 296.344 2148.97 293.544C2164.57 291.344 2180.27 289.044 2195.87 286.744C2203.67 285.544 2211.67 285.744 2219.57 284.744C2225.77 283.944 2232.17 284.944 2237.47 280.244C2239.27 278.644 2241.77 278.944 2244.17 279.844C2252.87 283.244 2262.07 284.144 2271.37 284.644C2277.47 284.944 2282.97 287.544 2288.17 290.444C2291.27 292.144 2295.87 305.744 2295.07 309.344C2294.47 312.044 2292.67 313.244 2290.07 313.244C2281.57 313.344 2272.97 312.944 2264.47 313.544C2257.27 314.044 2250.17 315.544 2242.87 315.244C2240.77 315.144 2238.87 316.444 2238.57 318.644C2237.97 323.344 2234.77 323.844 2230.87 324.844C2216.17 328.544 2201.17 329.944 2186.17 331.844C2175.77 333.144 2170.87 334.244 2161.17 339.744C2165.37 345.544 2172.77 347.244 2177.37 352.444C2182.27 358.044 2182.17 363.144 2176.27 367.644C2172.07 370.844 2167.57 373.844 2162.57 375.544C2135.47 384.844 2108.07 392.844 2079.77 397.144C2057.97 400.544 2037.57 408.444 2017.27 416.744C2008.47 420.344 1999.27 423.144 1990.07 425.544C1985.17 426.844 1981.87 429.144 1979.27 433.344C1972.37 444.444 1968.67 456.844 1963.57 468.644C1958.97 479.244 1955.87 490.444 1951.47 501.144C1949.47 505.944 1952.57 509.244 1952.87 513.144C1965.97 515.444 1977.67 510.544 1988.77 506.244C2025.27 492.344 2062.27 480.044 2099.27 467.744C2118.67 461.244 2138.07 454.444 2157.57 448.344C2170.77 444.244 2184.17 439.844 2197.77 437.844C2208.17 436.344 2218.37 432.844 2228.97 433.444C2232.77 433.644 2235.27 431.744 2237.47 429.144C2242.37 423.344 2248.47 421.844 2255.97 421.444C2272.47 420.544 2288.47 416.644 2303.97 410.544C2305.17 410.044 2306.37 409.044 2307.57 408.944C2322.27 408.144 2328.47 397.344 2335.37 386.544C2346.97 368.444 2359.57 351.044 2371.37 333.144C2392.07 301.844 2414.27 271.544 2436.67 241.344C2456.37 214.844 2475.57 188.144 2494.87 161.344C2497.27 158.044 2499.87 155.144 2502.77 152.344C2512.47 142.744 2520.87 132.344 2526.57 119.744C2528.27 116.044 2531.57 113.644 2535.27 111.844C2539.47 109.844 2544.07 108.244 2547.67 105.344C2554.97 99.4439 2562.97 98.0439 2572.17 96.7439C2581.97 95.3439 2591.57 96.8439 2601.27 95.8439C2608.77 95.0439 2616.87 96.9439 2624.57 99.1439C2627.37 99.9439 2629.37 101.544 2630.67 103.844C2633.57 109.344 2637.57 111.544 2643.67 109.244C2645.17 108.644 2646.97 108.844 2648.57 108.844C2663.37 108.344 2671.37 114.744 2673.07 129.544C2675.27 148.544 2678.37 167.644 2676.77 186.844C2674.67 213.044 2675.57 239.344 2674.87 265.544C2674.57 275.944 2672.77 286.444 2670.47 296.744C2668.97 303.444 2669.87 309.944 2669.37 316.544C2669.07 320.244 2671.47 321.244 2674.47 320.744C2691.47 317.844 2708.67 316.744 2725.87 316.944C2730.17 317.044 2732.47 314.244 2734.27 310.944C2741.47 298.044 2752.77 287.644 2757.77 273.344C2758.07 272.444 2758.97 271.744 2759.67 271.044C2772.47 257.544 2785.27 244.044 2798.17 230.644C2807.17 221.344 2815.97 211.944 2825.57 203.344C2838.57 191.644 2851.77 179.944 2866.97 170.944C2871.57 168.244 2874.67 163.744 2878.87 160.344C2892.17 149.844 2907.77 142.544 2920.87 132.044C2929.57 125.144 2938.97 120.244 2948.47 115.044C2958.07 109.844 2965.97 102.044 2975.97 97.3439C2983.87 93.5439 2991.77 91.1438 3000.77 91.4438C3015.97 91.9438 3031.37 90.3438 3046.07 95.4438C3055.77 98.7438 3066.87 98.5439 3074.87 106.344C3075.27 106.744 3076.07 106.844 3076.77 106.844C3090.47 108.644 3101.27 116.544 3110.97 125.044C3116.97 130.244 3122.27 136.344 3121.97 147.044C3121.37 168.544 3112.07 187.244 3107.17 207.244C3106.57 209.544 3105.97 211.244 3106.87 213.844C3108.77 219.544 3109.77 225.044 3103.47 229.844C3100.47 232.144 3101.37 237.444 3102.67 241.144C3105.47 249.744 3103.47 257.144 3098.37 264.044C3097.97 264.544 3097.37 265.044 3097.17 265.644C3090.37 281.944 3075.17 284.544 3060.57 287.744C3057.07 288.544 3053.27 287.144 3049.87 289.344C3049.37 289.644 3048.47 289.844 3047.97 289.644C3036.27 283.644 3020.57 283.744 3014.17 269.344C3012.07 264.644 3011.67 259.244 3010.87 254.044C3010.17 249.544 3011.07 245.244 3008.87 240.544C3007.57 237.644 3010.27 232.644 3011.67 228.744C3014.47 221.344 3017.67 214.044 3020.67 206.644C3021.37 204.944 3023.07 203.044 3021.27 201.244C3019.57 199.644 3017.67 201.044 3015.67 201.544C2994.07 206.844 2976.27 219.444 2957.87 231.044C2941.37 241.444 2926.57 254.044 2910.47 264.944C2896.27 274.544 2881.47 283.444 2867.77 293.644C2858.27 300.744 2848.27 307.444 2840.17 316.344C2838.37 318.244 2835.97 320.044 2837.57 323.144C2838.77 325.544 2841.17 325.644 2843.47 326.044C2858.67 329.144 2873.67 325.644 2888.67 324.644C2900.27 323.944 2911.67 322.344 2923.07 320.444C2936.97 318.144 2951.17 320.444 2964.67 318.144C2980.17 315.444 2995.07 318.644 3010.17 318.944C3028.37 319.344 3044.97 326.744 3060.47 336.044C3064.77 338.644 3068.97 343.244 3070.77 347.844C3075.87 361.044 3084.87 371.744 3091.97 383.644C3095.37 389.444 3096.87 395.144 3093.97 401.244C3090.17 409.244 3089.67 418.044 3089.17 426.344C3087.97 443.744 3080.47 456.344 3067.17 467.644C3050.97 481.444 3032.47 490.244 3013.17 497.944C3004.57 501.344 2995.77 504.944 2987.97 509.244C2980.27 513.444 2972.47 518.044 2964.47 521.744C2952.77 527.144 2942.07 533.644 2931.57 540.944C2928.27 543.244 2926.17 549.344 2920.27 547.744C2915.17 546.344 2911.97 551.544 2907.17 551.544C2903.27 551.544 2900.77 554.844 2897.67 556.644C2896.27 557.444 2894.77 558.844 2895.37 560.644C2898.17 567.844 2892.37 568.744 2888.17 569.544C2884.37 570.244 2880.57 571.044 2876.17 570.444C2870.47 569.644 2863.47 568.244 2857.77 571.544C2854.87 573.144 2849.57 572.844 2850.77 578.944C2850.97 580.044 2847.67 582.444 2845.67 583.044C2840.57 584.544 2835.77 586.744 2830.57 587.744C2825.07 588.744 2818.37 587.844 2815.17 594.544C2815.07 594.744 2814.57 594.844 2814.27 594.944C2801.57 597.144 2792.17 605.944 2781.07 611.244C2779.17 612.144 2777.97 613.544 2776.57 614.944C2770.67 621.044 2762.27 619.244 2755.17 621.344C2754.57 621.544 2753.47 620.544 2752.87 619.844C2748.97 615.944 2744.57 613.644 2738.77 614.244C2732.97 614.844 2731.17 610.044 2730.67 605.944C2730.07 601.944 2728.67 600.744 2725.07 601.044C2721.07 601.344 2718.27 600.244 2716.17 596.344C2714.87 594.044 2712.37 592.044 2709.67 590.544C2702.37 586.244 2698.77 578.344 2696.17 571.344C2693.47 564.144 2697.27 555.344 2704.27 551.644C2715.47 545.844 2723.77 535.744 2735.87 531.544C2750.67 526.344 2763.57 517.444 2777.87 511.044C2789.87 505.744 2800.37 497.244 2811.67 490.344C2835.67 475.644 2859.47 460.644 2883.97 446.744C2890.57 443.044 2895.47 436.644 2902.67 433.744C2919.37 427.144 2934.07 416.644 2949.57 407.944C2953.57 405.744 2959.37 404.544 2959.77 398.144C2956.37 396.944 2952.87 396.044 2949.67 394.544C2945.77 392.644 2941.97 392.844 2938.17 394.144C2933.87 395.644 2929.67 397.744 2925.27 394.344C2924.07 393.444 2922.67 394.144 2921.57 394.644C2912.17 399.544 2901.57 398.644 2891.57 401.044C2884.67 402.744 2877.77 403.744 2870.27 403.244C2862.67 402.644 2854.77 405.644 2846.97 407.144C2845.67 407.344 2844.27 408.344 2843.17 408.044C2833.97 406.344 2825.07 408.744 2816.07 409.244C2805.57 409.844 2795.77 412.344 2786.17 414.944C2771.97 418.844 2760.17 414.944 2749.07 407.344C2745.27 404.644 2742.67 399.844 2740.27 395.544C2734.27 385.144 2726.97 375.344 2724.27 363.344C2723.47 359.944 2721.57 359.044 2718.77 358.944C2708.17 358.644 2697.27 357.844 2688.47 365.544C2684.37 369.144 2678.87 368.244 2674.47 372.144C2666.07 379.544 2665.57 388.744 2666.47 398.044C2666.97 402.944 2667.87 407.144 2663.97 410.744C2661.37 413.144 2661.77 416.144 2661.77 419.144C2661.77 426.144 2661.07 433.244 2661.97 440.144C2663.47 451.644 2658.97 462.244 2657.77 473.344C2657.57 475.444 2655.67 476.644 2653.87 477.644C2650.77 474.244 2649.87 470.144 2650.17 465.744C2650.67 458.444 2649.67 451.244 2648.37 444.044C2648.07 442.444 2648.17 440.144 2646.17 440.644C2644.27 441.044 2640.57 440.944 2641.07 444.144C2641.97 450.644 2639.67 456.944 2640.27 463.544C2641.37 476.444 2640.77 489.544 2640.77 502.544C2640.77 506.544 2635.67 509.544 2637.47 513.544C2638.87 516.844 2638.17 520.544 2640.07 524.344C2644.27 522.244 2644.27 516.544 2649.77 516.144C2650.07 522.644 2654.07 528.544 2651.07 535.744C2650.17 537.944 2652.07 541.344 2652.47 544.244C2653.87 553.144 2650.07 561.144 2648.27 569.344C2647.17 574.244 2646.67 579.044 2646.67 584.044C2646.67 588.244 2645.67 592.744 2641.97 594.344C2634.47 597.644 2637.77 607.644 2630.77 610.744C2634.97 615.544 2631.47 620.644 2631.37 625.644C2631.37 628.944 2630.17 627.744 2627.87 627.544C2625.77 627.344 2622.97 629.344 2621.47 631.144C2617.07 636.344 2612.07 635.344 2606.97 633.144C2599.67 630.044 2595.87 624.344 2595.17 616.444C2594.87 612.844 2594.57 609.144 2594.57 605.544C2594.47 600.344 2596.57 594.944 2592.37 590.344C2592.77 575.844 2588.57 561.644 2589.37 547.144C2589.97 536.244 2586.87 525.744 2587.17 514.844C2587.97 484.344 2587.17 453.744 2587.77 423.244C2587.97 414.044 2583.57 405.444 2585.37 396.144C2585.97 393.344 2583.27 393.444 2581.27 393.344C2575.27 393.144 2569.57 395.244 2563.77 396.344C2548.47 399.144 2533.77 404.044 2518.77 408.044C2516.17 408.744 2513.17 410.844 2511.07 406.644C2510.07 404.544 2508.07 406.044 2506.87 406.844C2493.87 414.344 2478.57 415.144 2464.87 420.944C2459.87 423.044 2453.97 422.944 2449.57 426.944C2448.97 427.544 2447.77 428.444 2447.07 427.144C2445.47 423.944 2443.47 424.244 2440.67 425.644C2437.37 427.344 2434.27 428.744 2432.57 432.544C2427.17 444.444 2418.17 454.344 2413.27 466.644C2410.17 474.544 2405.57 481.844 2398.27 487.244C2396.07 488.844 2394.57 492.144 2393.87 494.844C2392.47 500.744 2389.87 505.344 2384.77 508.844C2381.37 511.244 2379.47 514.244 2379.07 519.144C2378.27 528.444 2371.27 534.944 2365.57 541.844C2362.27 545.844 2358.17 548.844 2358.27 555.244C2358.37 560.944 2352.37 564.544 2349.37 569.244C2345.17 575.844 2341.37 583.044 2333.87 586.944C2330.77 588.544 2329.67 592.044 2328.27 595.044C2326.37 599.144 2323.17 601.144 2318.77 600.044C2314.87 599.144 2312.67 601.244 2310.27 603.644C2306.37 607.644 2302.27 611.544 2295.87 610.944C2294.97 610.844 2293.37 611.044 2293.07 611.644C2289.27 619.444 2283.47 615.344 2277.77 614.944C2266.87 614.144 2255.77 614.644 2244.77 614.544C2239.07 614.544 2233.47 614.744 2227.77 614.444C2221.77 614.144 2219.87 610.944 2220.37 604.844C2221.87 586.544 2228.37 569.644 2235.77 553.144C2240.37 542.944 2246.67 533.544 2252.17 523.744C2259.07 511.344 2266.17 499.144 2272.57 486.444C2276.27 479.144 2281.37 472.644 2285.87 464.544C2276.87 462.244 2269.47 466.744 2261.77 465.844C2253.47 464.844 2248.67 472.444 2242.27 476.444C2242.67 477.844 2242.97 479.644 2243.47 481.344C2244.17 483.744 2247.47 486.344 2245.57 488.444C2243.57 490.644 2240.07 492.444 2236.97 492.744C2222.27 494.244 2209.37 501.544 2195.37 505.144C2190.17 506.444 2189.47 513.044 2183.87 513.344C2179.27 513.644 2174.57 512.544 2169.97 514.144C2167.87 514.844 2165.77 515.744 2163.07 516.744C2165.17 521.144 2170.17 517.244 2172.77 520.944C2163.77 525.844 2155.27 530.844 2145.17 532.344C2134.77 533.944 2125.47 539.244 2115.27 541.544C2106.77 551.344 2094.57 551.244 2083.27 553.944C2077.57 555.244 2072.77 559.144 2067.57 561.744C2054.57 568.244 2040.47 572.144 2027.77 579.544C2015.57 586.744 2002.37 592.244 1988.57 595.944C1974.07 599.844 1960.67 606.144 1947.07 612.344C1932.07 619.144 1916.07 621.244 1900.47 616.244C1885.27 611.444 1870.27 605.844 1854.97 601.244C1850.57 599.944 1846.57 596.944 1843.67 593.344C1838.57 587.044 1835.87 579.244 1829.97 573.244C1825.87 569.044 1829.37 563.244 1830.37 557.744C1822.67 559.244 1818.57 565.044 1813.57 569.044C1789.07 588.744 1762.57 604.644 1733.67 616.844C1724.87 620.544 1716.47 625.244 1706.77 626.444C1704.97 626.644 1702.97 627.944 1701.57 629.244C1695.17 634.944 1686.87 636.244 1679.27 639.144C1677.77 639.744 1675.57 639.644 1674.57 640.644C1667.57 648.044 1658.17 648.644 1649.07 650.944C1641.87 652.744 1634.77 656.444 1629.27 661.644C1625.67 665.044 1621.57 667.244 1617.07 667.444C1608.07 667.944 1599.67 669.644 1592.07 674.744C1591.37 675.244 1590.17 675.144 1589.17 675.144C1583.67 675.144 1577.77 677.544 1573.07 677.144C1566.37 676.544 1561.87 679.944 1556.37 681.144C1550.87 682.344 1545.67 684.644 1540.37 686.544C1537.57 687.544 1534.77 688.544 1531.97 689.644C1530.37 690.244 1528.97 691.044 1527.17 690.544C1525.87 690.244 1524.47 689.544 1524.17 688.244C1523.77 686.844 1524.67 685.744 1526.07 685.244C1528.87 684.144 1531.57 682.944 1534.37 681.944C1540.77 679.844 1546.17 676.244 1551.37 672.144C1557.87 670.044 1564.37 667.844 1570.87 665.744C1572.97 665.044 1573.17 663.644 1572.77 661.944C1572.17 659.744 1570.77 659.944 1568.97 660.644C1562.97 663.144 1556.87 665.444 1550.77 667.844C1538.57 668.844 1527.27 675.144 1514.17 672.944C1507.67 671.844 1501.27 677.344 1494.77 679.844C1481.97 684.944 1469.07 689.744 1455.27 691.144C1455.17 690.244 1454.67 688.444 1454.87 688.444C1458.87 686.844 1461.57 683.244 1466.47 682.544C1471.27 681.844 1477.07 680.844 1479.67 675.244C1479.67 675.244 1480.17 675.344 1480.27 675.444C1480.87 676.644 1480.77 674.044 1481.37 673.344C1469.77 678.844 1460.17 683.144 1450.67 687.444ZM1751.57 259.844C1746.07 259.744 1742.67 263.144 1738.57 267.244C1745.27 268.244 1748.07 263.444 1752.07 261.044C1755.57 260.044 1759.27 259.344 1761.07 253.944C1756.47 255.244 1753.57 256.844 1751.57 259.844ZM1765.37 252.144C1773.67 249.444 1779.47 242.344 1787.87 239.944C1777.57 240.044 1771.97 242.944 1764.47 251.444C1763.67 251.744 1762.67 252.244 1763.57 253.144C1764.37 253.944 1765.07 253.044 1765.37 252.144ZM1593.97 253.144C1598.07 255.144 1600.97 252.144 1604.17 250.744C1628.47 239.844 1650.47 224.944 1673.97 212.544C1700.07 198.844 1725.67 184.044 1751.37 169.644C1765.87 161.544 1780.77 154.244 1794.37 144.844C1809.27 134.544 1822.97 122.444 1836.77 110.744C1840.67 107.444 1846.57 106.044 1847.77 100.344C1846.47 97.9439 1844.47 97.7439 1842.47 97.8439C1830.67 98.5439 1819.17 95.9439 1807.07 97.2439C1787.77 99.3439 1768.57 101.544 1749.47 105.044C1744.77 105.944 1740.67 109.844 1736.67 108.844C1731.87 107.544 1728.47 109.244 1724.47 110.444C1720.77 111.544 1716.97 113.344 1713.27 113.544C1689.17 114.744 1668.67 126.544 1647.07 135.244C1644.47 136.244 1640.97 139.644 1643.47 142.244C1649.07 148.444 1645.77 153.944 1643.57 159.744C1640.27 168.644 1638.57 178.844 1633.17 186.244C1617.57 207.344 1605.27 230.244 1593.77 253.644C1594.27 253.244 1594.47 253.644 1594.17 253.744C1592.97 253.744 1594.77 254.144 1593.97 253.144ZM1388.37 601.444C1401.97 596.444 1415.47 590.844 1429.37 586.444C1458.37 577.244 1487.57 568.744 1516.57 559.544C1548.37 549.444 1579.97 538.944 1611.77 528.744C1650.37 516.444 1687.97 501.544 1723.97 483.244C1734.87 477.744 1745.37 471.344 1756.37 466.044C1764.47 462.044 1771.97 456.144 1775.57 446.844C1776.57 444.144 1777.77 441.544 1780.47 439.544C1783.07 437.644 1785.47 434.244 1783.97 430.944C1781.67 425.844 1779.27 420.444 1773.87 417.844C1767.17 414.744 1761.67 409.944 1755.87 405.644C1752.57 403.244 1749.27 401.744 1745.27 400.744C1735.47 398.144 1725.77 394.944 1716.17 391.444C1708.87 388.744 1702.27 383.444 1693.77 387.144C1693.07 387.444 1691.57 387.244 1690.97 386.744C1683.67 380.144 1673.97 381.244 1665.57 380.344C1651.17 378.844 1637.07 375.044 1622.67 373.744C1618.57 373.344 1614.57 371.744 1610.47 373.444C1603.97 367.844 1595.67 369.844 1588.17 368.344C1577.47 366.144 1566.47 367.044 1555.67 365.044C1548.97 363.744 1546.67 365.044 1544.47 371.744C1542.47 377.844 1539.37 383.244 1536.27 388.744C1533.07 394.544 1529.37 400.244 1527.27 406.444C1522.07 422.544 1515.67 438.044 1506.67 452.544C1501.87 460.144 1497.27 467.744 1488.17 471.044C1483.67 472.644 1480.67 476.444 1477.77 480.044C1476.77 481.244 1476.47 483.544 1474.77 483.844C1466.77 485.044 1466.77 492.544 1463.87 497.644C1462.27 500.444 1461.67 503.844 1460.67 507.044C1458.87 512.644 1456.57 517.644 1449.27 516.644C1447.07 516.344 1445.77 518.344 1446.17 519.644C1447.97 524.944 1445.37 527.144 1441.37 529.944C1436.77 533.244 1436.77 541.044 1429.67 542.344C1431.67 547.744 1426.27 550.744 1425.27 555.344C1423.87 561.744 1420.67 567.744 1418.57 574.044C1416.37 580.744 1410.57 583.044 1404.97 584.544C1398.87 586.144 1398.47 585.344 1396.97 587.944C1394.47 592.044 1390.77 594.844 1387.47 598.044C1384.87 599.844 1380.87 600.244 1379.67 605.144C1383.37 604.844 1385.87 603.244 1388.37 601.444ZM2590.67 229.444C2586.37 230.144 2584.87 232.644 2583.27 235.044C2571.47 252.444 2556.87 267.744 2545.67 285.744C2539.87 295.044 2530.57 302.144 2526.77 313.044C2526.37 314.244 2525.17 315.144 2524.17 315.944C2509.07 327.444 2502.67 345.444 2490.27 360.644C2520.97 353.144 2550.87 348.244 2579.27 337.644C2587.07 334.744 2587.57 334.944 2587.07 326.844C2585.77 304.644 2591.07 282.744 2588.77 260.544C2588.67 259.144 2589.07 258.044 2589.47 256.744C2592.37 248.044 2590.27 239.044 2590.67 229.444ZM1409.47 567.344C1411.87 566.544 1412.67 564.544 1412.67 562.144C1412.67 561.144 1412.07 560.144 1410.97 560.344C1408.27 560.944 1407.87 563.344 1407.47 565.544C1407.27 566.544 1408.17 567.244 1409.47 567.344ZM2632.47 435.044C2630.37 438.744 2629.97 442.944 2632.47 447.044C2632.47 443.044 2632.47 439.044 2632.47 435.044ZM1596.17 655.944C1595.87 655.444 1595.67 654.544 1595.27 654.444C1594.27 654.044 1593.37 654.644 1593.27 655.744C1593.17 656.244 1593.67 657.144 1594.07 657.244C1595.07 657.544 1595.87 657.044 1596.17 655.944ZM1588.47 644.344C1587.37 644.544 1586.87 645.344 1587.17 646.344C1587.27 646.744 1588.17 647.244 1588.67 647.144C1589.77 647.044 1590.27 646.244 1589.97 645.244C1589.87 644.844 1588.97 644.644 1588.47 644.344ZM1594.47 642.444C1593.37 642.744 1592.87 643.444 1593.17 644.444C1593.27 644.844 1594.17 645.344 1594.67 645.244C1595.77 645.144 1596.37 644.344 1595.97 643.244C1595.87 642.844 1594.97 642.644 1594.47 642.444ZM2334.17 569.344C2334.67 569.144 2335.47 569.044 2335.77 568.644C2336.27 567.744 2335.87 566.844 2334.97 566.544C2334.57 566.444 2333.67 566.744 2333.47 567.144C2332.87 567.944 2333.17 568.844 2334.17 569.344ZM2354.57 524.344C2353.57 524.744 2353.17 525.544 2353.67 526.444C2353.87 526.844 2354.77 527.244 2355.27 527.144C2356.27 526.844 2356.67 525.944 2356.17 525.044C2355.97 524.644 2355.07 524.544 2354.57 524.344ZM2238.47 486.144C2238.27 485.544 2238.17 484.744 2237.77 484.444C2236.87 483.944 2235.87 484.344 2235.57 485.344C2235.47 485.844 2235.77 486.744 2236.27 486.944C2237.17 487.544 2237.97 487.144 2238.47 486.144ZM2362.27 515.144C2362.87 514.444 2363.47 513.744 2364.07 513.044C2363.67 512.744 2363.17 512.244 2362.77 512.244C2361.67 512.244 2360.97 512.944 2361.07 514.044C2360.97 514.344 2361.67 514.644 2362.27 515.144Z" fill="#020202"/>
<path d="M582.965 636.944C576.765 644.744 575.065 655.244 569.065 663.544C563.965 661.844 561.965 656.544 557.365 654.244C554.965 657.044 554.665 660.444 553.865 663.844C552.465 670.444 550.265 672.244 543.465 671.744C533.965 671.044 524.565 669.644 515.065 668.544C506.465 667.544 500.665 662.944 496.865 655.044C494.265 649.644 493.865 649.844 487.165 651.244C487.865 639.344 487.765 627.644 488.265 615.944C489.065 596.644 494.965 578.444 497.065 559.444C498.565 545.544 504.065 532.244 508.065 518.744C517.965 485.544 528.965 452.844 540.465 420.244C549.165 395.544 557.065 370.444 566.865 346.144C577.065 320.744 587.465 295.344 597.165 269.744C599.765 262.944 604.165 256.644 604.665 248.944C600.965 248.344 599.565 251.144 597.865 252.944C586.265 265.144 574.565 277.144 564.265 290.444C551.665 306.544 538.965 322.644 526.965 339.344C517.765 352.244 508.265 364.944 500.065 378.544C494.165 388.344 487.365 397.944 478.865 405.944C474.565 409.944 471.065 414.344 468.765 420.244C465.865 427.544 459.565 433.244 453.965 438.644C430.265 461.144 411.065 487.344 391.965 513.544C388.565 518.144 384.765 522.144 379.965 525.244C371.365 530.944 362.865 536.644 354.465 542.544C352.365 544.044 350.165 543.944 347.865 544.144C334.965 545.544 322.165 547.444 309.865 551.744C301.065 554.744 292.465 554.344 283.565 552.144C273.765 549.744 267.265 543.444 265.165 534.444C262.865 524.444 256.465 516.244 254.965 506.044C254.665 504.144 254.165 502.344 254.165 500.344C254.365 482.644 254.365 465.044 254.365 447.344C254.365 437.544 256.865 427.944 257.465 418.344C258.265 406.244 262.465 394.744 261.865 382.344C261.565 376.644 263.265 370.244 264.265 364.144C266.765 347.844 268.065 331.544 269.965 315.144C270.565 309.644 272.565 304.244 273.765 298.844C277.365 282.044 274.665 265.144 274.065 247.644C271.265 251.344 268.265 255.044 265.565 258.844C253.165 276.044 242.865 294.644 232.565 313.144C219.465 336.544 207.565 360.544 195.265 384.444C181.465 411.144 168.565 438.344 159.165 467.044C156.065 476.544 150.765 484.944 146.065 493.744C141.865 501.544 140.365 509.744 140.065 518.544C139.565 530.344 137.265 541.844 134.165 553.444C130.865 565.844 123.965 576.944 122.465 589.944C121.865 595.344 118.065 600.844 114.065 605.544C106.765 614.244 102.065 624.044 99.8647 635.544C97.9647 645.844 95.3647 656.444 86.4647 663.644C83.3647 666.144 80.2647 668.744 75.4647 667.544C75.2647 663.744 75.0647 660.144 74.7647 656.544C71.1647 656.044 69.6647 657.544 68.9647 660.644C68.1647 664.544 65.4647 667.744 61.5647 667.744C46.8647 667.644 32.7647 673.544 17.8647 671.944C15.8647 671.744 14.0647 671.544 12.0647 670.844C0.864668 667.244 0.264668 666.444 0.0646676 654.844C-0.135332 641.344 -0.135333 627.844 4.16467 614.744C4.86467 612.644 4.56467 610.144 4.46467 607.844C3.96467 593.944 7.16467 580.844 13.3647 568.444C14.4647 566.144 14.2647 563.844 14.1647 561.644C13.7647 551.544 15.1647 542.144 19.4647 532.644C22.9647 524.944 24.4647 516.344 25.9647 507.744C28.2647 494.444 32.5647 481.544 37.3647 468.844C53.0647 427.444 65.4647 385.044 80.6647 343.444C91.5647 313.444 102.265 283.444 113.465 253.644C125.065 222.744 137.365 192.144 150.965 162.044C164.165 132.744 177.665 103.444 194.065 75.6439C198.765 67.7439 203.765 59.7439 209.665 52.7439C213.365 48.3439 219.865 46.4439 223.765 42.1439C229.465 35.9439 236.565 32.9438 244.165 30.4438C254.465 27.0438 258.565 28.6438 265.165 37.5438C268.565 42.0438 273.965 42.2439 278.565 42.3439C298.865 42.5439 318.965 45.5438 339.365 44.4438C348.565 43.9438 356.665 46.8439 364.365 52.1439C370.565 56.4439 378.365 58.0438 385.665 59.5438C393.865 61.3438 400.165 65.3438 406.065 70.9438C415.065 79.5438 422.365 89.2438 429.265 99.4438C431.865 103.344 432.965 107.444 433.365 111.344C434.665 123.344 433.865 135.444 430.165 147.144C427.465 155.944 427.265 165.544 423.865 173.844C419.165 185.644 418.265 198.144 414.865 210.044C413.665 214.144 411.865 218.044 410.465 222.044C404.865 239.044 402.765 256.544 399.965 274.044C395.265 302.544 388.865 330.744 381.465 358.644C380.165 363.644 381.065 368.144 381.065 373.144C388.565 366.244 394.665 358.644 399.965 350.444C410.465 334.344 421.165 318.444 432.965 303.244C439.765 294.444 443.565 283.544 450.865 274.944C455.565 269.344 460.065 263.644 465.165 258.444C469.765 253.644 473.865 248.544 476.965 242.544C481.865 233.044 488.865 225.244 496.065 217.544C503.765 209.344 511.765 201.344 518.265 192.144C518.865 191.344 519.465 190.444 520.165 189.844C533.965 178.144 543.765 162.944 555.965 149.744C561.165 144.044 567.365 138.844 570.065 130.944C570.965 128.344 573.965 126.544 576.165 124.444C582.465 118.244 587.665 111.044 592.665 103.744C596.965 97.6439 602.865 92.6438 608.165 87.4438C616.265 79.4438 625.265 72.3439 631.565 62.7439C634.965 57.6439 639.765 54.2439 644.365 50.6439C653.665 43.2439 662.765 35.4438 671.165 27.0438C675.465 22.7438 680.865 21.3438 686.265 20.0438C696.465 17.5438 706.865 16.0438 714.565 7.44383C716.965 4.74383 721.665 3.04383 725.365 2.94383C737.865 2.44383 750.565 1.04391 762.965 4.64391C764.165 5.04391 765.665 5.44386 766.465 6.34386C775.665 16.2439 788.065 21.4439 798.865 29.1439C810.065 37.1439 819.665 46.5438 827.265 57.9438C834.265 68.3438 833.765 80.3439 831.565 91.6439C828.265 108.044 823.265 124.244 813.365 138.344C812.865 139.044 812.965 140.244 812.765 141.444C819.365 142.844 825.065 139.744 831.065 138.644C847.665 135.844 863.465 130.144 879.765 126.044C896.365 121.844 913.265 119.144 930.165 117.044C936.965 116.144 943.765 114.644 950.465 113.044C962.365 110.244 974.465 109.044 986.465 107.444C1012.46 103.844 1038.66 104.344 1064.86 103.344C1077.06 102.844 1089.36 101.444 1101.56 102.044C1132.96 103.544 1164.06 107.044 1193.46 119.044C1208.36 125.144 1219.56 135.744 1229.36 148.144C1232.06 151.544 1232.86 155.044 1232.76 159.144C1232.56 166.144 1236.96 173.344 1231.26 180.044C1230.86 180.544 1232.06 182.344 1232.46 183.644C1235.36 192.344 1234.46 201.344 1234.56 210.244C1234.66 215.044 1233.56 219.744 1230.36 223.144C1225.06 228.744 1221.06 235.144 1216.56 241.344C1214.96 243.544 1213.86 245.644 1210.26 244.444C1206.26 243.144 1202.66 246.244 1198.86 246.944C1197.46 247.244 1196.76 248.144 1196.36 249.644C1193.26 260.644 1184.16 267.044 1175.86 273.044C1159.36 285.044 1140.76 293.144 1120.96 298.644C1112.66 300.944 1105.56 307.344 1097.26 310.344C1086.06 314.444 1077.66 323.644 1065.96 326.244C1059.26 327.744 1053.36 330.344 1047.96 334.344C1046.36 335.444 1045.16 336.244 1044.66 338.644C1043.56 344.744 1040.26 350.344 1034.16 352.044C1030.26 353.144 1029.96 355.044 1030.56 357.544C1033.16 367.444 1031.76 377.744 1034.86 387.844C1037.86 397.844 1038.46 408.444 1040.16 418.844C1041.86 429.844 1043.66 440.844 1045.16 451.944C1046.66 462.744 1047.96 473.544 1049.36 484.344C1051.06 497.044 1053.36 509.744 1054.36 522.544C1054.96 530.444 1055.86 538.144 1058.46 545.644C1059.56 548.844 1057.96 551.944 1055.66 553.644C1049.06 558.544 1047.56 565.244 1047.56 572.744C1047.56 577.644 1046.66 581.244 1041.26 583.744C1036.66 585.844 1036.46 591.744 1036.26 596.744C1035.96 606.144 1032.96 609.044 1023.46 607.644C1015.36 606.444 1007.46 604.144 999.365 602.644C995.165 601.844 992.465 599.544 990.065 595.944C985.265 588.744 982.165 580.544 976.465 574.044C973.565 570.644 975.165 566.444 973.665 562.644C967.665 547.844 965.765 532.144 963.765 516.344C960.265 489.544 953.865 463.244 947.765 436.944C946.065 429.544 944.065 422.144 944.565 414.544C944.765 410.744 943.565 407.344 942.365 403.944C939.165 394.544 935.765 385.344 932.565 376.044C931.265 372.144 929.265 370.844 925.265 372.744C917.565 376.444 908.965 374.244 900.865 376.044C897.665 376.744 895.765 377.444 897.365 380.844C899.065 384.244 896.965 385.644 894.665 387.144C886.565 392.144 878.565 397.144 873.065 405.344C871.465 407.844 869.365 410.044 868.365 412.844C862.865 427.444 854.765 440.844 848.965 455.344C843.365 469.444 835.065 482.344 830.165 496.744C828.665 501.144 826.265 505.144 824.865 509.544C823.965 512.244 823.065 513.644 820.165 514.844C814.665 517.044 815.765 523.444 815.165 527.844C814.265 533.944 813.065 539.444 809.665 544.544C809.165 545.344 809.065 547.044 808.465 547.244C797.265 550.844 797.765 560.844 795.865 569.644C795.565 571.044 795.465 572.644 793.865 572.644C785.365 572.544 784.365 579.544 782.365 585.044C780.065 591.444 772.965 594.244 771.465 603.344C768.865 597.744 766.065 597.344 762.065 597.944C756.165 598.744 749.665 596.744 744.965 602.344C743.665 603.844 741.265 604.444 739.365 603.644C730.565 600.444 721.565 601.944 712.665 602.144C705.065 602.244 701.565 598.944 700.265 589.244C698.165 573.244 704.265 559.044 709.265 544.444C720.565 511.744 730.565 478.644 740.765 445.644C744.565 433.344 749.865 421.544 754.565 409.644C756.165 405.544 759.465 402.244 755.365 397.144C753.065 394.344 756.665 387.644 760.765 386.044C767.865 383.344 771.165 378.044 774.065 371.344C787.465 340.144 803.765 310.444 819.865 280.644C826.765 267.844 833.465 254.844 838.965 241.244C842.365 232.744 847.165 224.644 851.565 215.944C846.465 213.344 842.965 215.844 839.465 218.044C835.065 220.944 830.865 224.244 825.865 226.344C817.965 229.744 812.565 229.344 807.265 223.044C802.465 217.444 795.565 214.844 790.765 209.244C788.265 206.344 783.765 205.744 779.765 205.344C775.565 204.844 773.065 206.444 771.365 210.544C766.765 221.744 761.165 232.344 753.765 242.244C749.365 248.144 746.265 255.344 744.065 262.844C741.965 270.144 738.865 277.144 735.565 283.944C729.065 297.444 722.565 310.844 714.365 323.444C713.265 325.144 712.265 326.644 711.665 328.644C708.065 341.144 702.365 352.744 696.365 364.244C688.665 378.844 683.165 394.244 678.065 409.844C674.565 420.544 670.165 430.944 665.365 441.144C662.165 447.844 660.865 454.844 659.465 461.944C658.765 465.444 658.565 470.044 655.565 471.944C648.865 476.244 648.365 484.244 643.665 489.744C641.065 492.844 638.965 497.744 640.565 503.544C642.565 510.644 637.965 517.644 635.765 524.344C633.965 529.844 632.565 534.844 633.565 540.644C635.065 550.044 630.965 558.844 629.565 567.944C629.465 568.544 629.165 569.344 628.665 569.644C620.165 575.644 621.565 584.944 620.365 593.444C618.565 606.144 616.465 618.744 614.765 631.444C614.165 636.044 614.765 640.744 614.565 645.444C614.465 649.144 614.065 652.844 609.165 648.644C608.265 647.844 607.165 647.844 606.665 648.644C602.265 656.144 601.665 647.944 599.765 646.744C598.865 646.144 599.265 643.644 599.065 642.044C598.965 640.344 598.865 638.644 596.565 638.444C594.765 638.244 593.265 639.044 592.365 640.544C591.365 642.244 590.565 644.144 589.665 645.844C588.965 647.144 587.765 647.744 586.365 647.544C584.165 647.244 584.265 645.544 583.965 643.844C584.165 641.344 586.465 639.344 582.965 636.944ZM927.665 307.744C940.065 304.544 949.265 298.544 959.365 294.344C992.065 280.744 1025.16 268.244 1057.26 253.344C1064.76 249.844 1072.66 247.344 1080.16 243.844C1099.16 235.044 1116.66 223.544 1133.96 211.944C1141.06 207.144 1147.76 201.744 1154.36 196.144C1160.86 190.544 1159.66 184.744 1151.66 182.044C1150.76 181.744 1149.66 181.744 1148.76 181.544C1139.06 179.544 1129.36 178.144 1119.46 177.544C1109.76 176.944 1100.36 180.144 1090.76 179.544C1081.06 178.944 1071.76 181.444 1062.16 181.944C1049.06 182.644 1036.06 185.144 1023.16 187.444C1009.56 189.844 996.265 193.644 982.565 195.544C978.365 196.144 975.965 198.344 976.865 203.944C978.265 212.544 976.665 220.644 971.365 228.444C966.965 234.944 961.665 241.744 959.465 249.044C955.565 261.944 947.265 271.444 939.565 281.644C933.965 289.144 930.965 297.744 927.665 307.744ZM604.165 636.744C606.065 636.944 607.265 635.844 607.365 634.644C607.665 626.344 607.665 618.044 607.665 609.644C607.665 607.644 606.365 606.644 604.465 606.744C601.965 606.844 601.165 608.444 601.165 610.744C601.265 619.644 600.165 628.544 604.165 636.744ZM624.165 524.244C625.565 523.744 626.365 522.644 625.965 521.344C625.565 520.144 624.765 518.244 624.165 518.244C621.965 518.244 622.465 520.344 622.465 521.744C622.365 522.944 622.565 524.144 624.165 524.244ZM604.965 246.944C605.265 247.244 605.465 247.444 605.665 247.644C605.865 247.244 606.165 246.744 606.265 246.344C606.265 246.144 605.865 245.944 605.665 245.644C605.365 246.144 605.165 246.544 604.965 246.944Z" fill="#020202"/>
<path d="M3186.47 151.244C3203.97 154.644 3222.37 147.444 3241.37 144.544C3259.87 141.744 3277.77 135.844 3296.77 135.544C3308.47 135.344 3320.17 132.444 3331.87 130.744C3333.17 130.544 3334.47 130.044 3335.77 130.144C3347.87 131.444 3359.07 125.844 3370.77 125.044C3381.67 124.244 3392.36 122.444 3403.06 120.544C3418.06 117.944 3433.17 116.844 3448.17 115.444C3460.67 114.344 3473.17 112.544 3485.77 112.944C3499.77 113.444 3513.77 113.144 3527.77 113.044C3531.87 113.044 3535.56 113.644 3539.06 116.144C3545.86 120.944 3545.96 120.944 3540.56 127.044C3537.56 130.444 3537.97 135.044 3541.97 137.744C3543.47 138.744 3545.37 140.244 3544.27 141.144C3540.27 144.244 3539.67 146.444 3544.27 149.444C3545.17 150.044 3544.96 153.544 3543.56 153.744C3538.16 154.544 3539.27 161.744 3533.87 162.744C3530.37 163.344 3529.56 168.244 3530.06 170.044C3531.36 174.544 3529.97 177.644 3527.37 180.744C3524.47 184.044 3521.27 187.344 3516.87 187.744C3503.47 188.844 3490.36 192.044 3477.06 193.844C3466.36 195.244 3454.86 195.744 3445.06 202.244C3440.96 204.944 3435.87 205.944 3430.97 206.544C3417.87 208.244 3415.47 210.544 3414.97 223.044C3414.77 229.244 3412.57 234.244 3408.37 239.044C3403.17 244.944 3399.77 252.344 3393.47 257.444C3392.77 258.044 3392.27 259.144 3392.17 260.044C3390.37 276.844 3379.57 289.544 3372.77 304.144C3371.77 306.344 3369.97 307.944 3367.87 309.044C3365.97 310.044 3364.86 311.644 3364.06 313.444C3355.46 332.644 3345.77 351.344 3338.17 370.944C3328.17 396.844 3317.17 422.244 3307.17 448.144C3301.97 461.644 3297.97 475.644 3291.77 488.844C3285.37 502.544 3279.67 516.644 3273.77 530.744C3271.97 535.044 3270.67 539.444 3269.17 543.844C3267.57 548.444 3266.66 553.144 3260.56 554.744C3257.46 555.544 3256.07 559.444 3254.87 562.644C3250.77 573.444 3246.87 584.244 3242.87 595.044C3241.17 599.744 3238.26 603.844 3236.06 608.344C3231.76 617.044 3219.17 621.444 3208.77 618.844C3196.17 615.644 3184.26 619.744 3175.56 629.444C3171.16 634.344 3166.86 639.344 3159.06 637.544C3155.66 636.744 3153.37 635.644 3153.47 631.844C3153.67 626.544 3152.97 621.244 3154.37 615.944C3157.57 603.644 3160.16 591.144 3163.56 578.944C3169.16 558.744 3174.87 538.644 3181.37 518.744C3188.77 496.244 3194.67 473.244 3202.47 450.844C3212.57 421.744 3224.27 393.244 3235.27 364.544C3245.97 336.544 3258.57 309.344 3269.47 281.444C3274.27 269.244 3279.17 256.744 3285.47 245.144C3286.57 243.144 3287.77 241.044 3288.37 238.844C3289.07 236.144 3286.56 234.544 3285.06 235.744C3279.86 239.844 3274.17 237.544 3268.97 237.144C3255.57 236.244 3245.27 241.844 3236.27 250.844C3235.37 251.744 3234.27 253.844 3233.87 253.644C3225.07 250.344 3218.86 260.444 3210.06 258.144C3206.66 257.244 3202.87 257.544 3199.87 255.144C3199.37 254.744 3198.87 254.144 3198.27 254.044C3180.27 251.144 3175.97 234.744 3167.27 222.644C3165.57 220.244 3163.97 217.744 3161.77 215.744C3159.47 213.844 3157.16 212.244 3156.56 208.944C3156.06 206.244 3153.87 204.444 3151.17 203.544C3145.47 201.544 3144.07 196.544 3144.17 191.544C3144.27 186.044 3144.77 179.844 3148.37 175.544C3154.37 168.144 3161.26 161.544 3168.06 154.744C3172.56 150.244 3178.57 151.144 3186.47 151.244Z" fill="#020202"/>
<path d="M1409.47 567.344C1408.17 567.344 1407.27 566.644 1407.47 565.544C1407.87 563.344 1408.27 560.944 1410.97 560.344C1412.17 560.144 1412.67 561.144 1412.67 562.144C1412.67 564.544 1411.87 566.544 1409.47 567.344Z" fill="#1A3037"/>
<path d="M1596.16 655.944C1595.86 657.044 1595.06 657.544 1594.06 657.244C1593.66 657.144 1593.16 656.244 1593.26 655.744C1593.36 654.644 1594.26 654.144 1595.26 654.444C1595.66 654.544 1595.86 655.444 1596.16 655.944Z" fill="#1A3037"/>
<path d="M1588.46 644.344C1588.96 644.644 1589.76 644.844 1589.96 645.244C1590.26 646.244 1589.76 647.144 1588.66 647.144C1588.16 647.144 1587.36 646.744 1587.16 646.344C1586.86 645.344 1587.36 644.644 1588.46 644.344Z" fill="#1A3037"/>
<path d="M1594.46 642.344C1594.96 642.644 1595.76 642.844 1595.96 643.244C1596.36 644.244 1595.76 645.144 1594.66 645.244C1594.16 645.244 1593.26 644.844 1593.16 644.444C1592.86 643.444 1593.36 642.644 1594.46 642.344Z" fill="#1A3037"/>
<path d="M1593.96 253.144C1594.76 254.244 1593.06 253.744 1594.36 253.544C1594.66 253.544 1594.46 253.044 1593.96 253.544C1593.86 253.544 1593.96 253.144 1593.96 253.144Z" fill="#FBFBFB"/>
<path d="M604.965 246.944C605.165 246.544 605.465 246.044 605.665 245.644C605.865 245.844 606.365 246.144 606.265 246.344C606.165 246.844 605.865 247.244 605.665 247.644C605.465 247.444 605.165 247.244 604.965 246.944Z" fill="white"/>
</svg>
